<?xml version="1.0" encoding="UTF-8" standalone="no"?>
<!DOCTYPE svg PUBLIC "-//W3C//DTD SVG 1.1//EN" "http://www.w3.org/Graphics/SVG/1.1/DTD/svg11.dtd">
<svg version="1.1" xmlns:dc="http://purl.org/dc/elements/1.1/" xmlns:xl="http://www.w3.org/1999/xlink" xmlns="http://www.w3.org/2000/svg" viewBox="-764 -327 1227.8706 823.8906" width="1227.8706" height="823.8906">
  <defs>
    <marker orient="auto" overflow="visible" markerUnits="strokeWidth" id="FilledArrow_Marker" stroke-linejoin="miter" stroke-miterlimit="10" viewBox="-1 -4 10 8" markerWidth="10" markerHeight="8" color="#807cff">
      <g>
        <path d="M 8 0 L 0 -3 L 0 3 Z" fill="currentColor" stroke="currentColor" stroke-width="1"/>
      </g>
    </marker>
    <marker orient="auto" overflow="visible" markerUnits="strokeWidth" id="FilledArrow_Marker_2" stroke-linejoin="miter" stroke-miterlimit="10" viewBox="-1 -3 7 6" markerWidth="7" markerHeight="6" color="#726ee8">
      <g>
        <path d="M 4.8 0 L 0 -1.8 L 0 1.8 Z" fill="currentColor" stroke="currentColor" stroke-width="1"/>
      </g>
    </marker>
  </defs>
  <g id="Canvas_1" fill="none" stroke="none" stroke-opacity="1" stroke-dasharray="none" fill-opacity="1">
    <title>Canvas 1</title>
    <g id="Canvas_1_Layer_1">
      <title>Layer 1</title>
      <g id="Graphic_32">
        <rect x="-379" y="64" width="724.8" height="264.0931" stroke="#00b6c6" stroke-linecap="round" stroke-linejoin="round" stroke-width="2"/>
      </g>
      <g id="Graphic_177">
        <rect x="-758" y="-8" width="1202" height="498.8906" stroke="#00b6c6" stroke-linecap="round" stroke-linejoin="round" stroke-width="2"/>
      </g>
      <g id="Line_158">
        <line x1="-56.104105" y1="153.7931" x2="-56.16486" y2="188.3865" stroke="#807cff" stroke-linecap="round" stroke-linejoin="round" stroke-width="1"/>
      </g>
      <g id="Line_41">
        <path d="M -80.98657 188.1856 L -50.14144 188.43525 L -31.152804 188.27793" marker-end="url(#FilledArrow_Marker)" stroke="#807cff" stroke-linecap="round" stroke-linejoin="round" stroke-width="1"/>
      </g>
      <g id="Line_139">
        <line x1="-511.5764" y1="-83.78125" x2="-510.274" y2="189.0411" stroke="#7f8080" stroke-linecap="round" stroke-linejoin="round" stroke-width="1"/>
      </g>
      <g id="Line_52">
        <line x1="86.38686" y1="187.88535" x2="136.22032" y2="188.01066" marker-end="url(#FilledArrow_Marker)" stroke="#807cff" stroke-linecap="round" stroke-linejoin="round" stroke-width="1"/>
      </g>
      <g id="Graphic_24">
        <path d="M -168.62657 151.75 L -100.98657 151.75 C -89.94088 151.75 -80.98657 160.7043 -80.98657 171.75 L -80.98657 203.75 C -80.98657 214.7957 -89.94088 223.75 -100.98657 223.75 L -168.62657 223.75 C -179.67227 223.75 -188.62657 214.7957 -188.62657 203.75 L -188.62657 171.75 C -188.62657 160.7043 -179.67227 151.75 -168.62657 151.75 Z" fill="#716ee0"/>
        <text transform="translate(-183.62657 178.526)" fill="white">
          <tspan font-family="Helvetica Neue" font-size="16" fill="white" x="1.8359997" y="15">PreCommit 1</tspan>
        </text>
      </g>
      <g id="Graphic_27">
        <rect x="-174.74188" y="229.75" width="79.87062" height="13.851852" fill="#716ee0"/>
        <text transform="translate(-169.74188 229.50793)" fill="white">
          <tspan font-family="Helvetica Neue" font-size="12" fill="white" x="15.15331" y="11">Layer 1</tspan>
        </text>
      </g>
      <g id="Graphic_28">
        <rect x="-174.74188" y="249.89815" width="79.87062" height="13.851852" fill="#716ee0"/>
        <text transform="translate(-169.74188 249.65607)" fill="white">
          <tspan font-family="Helvetica Neue" font-size="12" fill="white" x="15.15331" y="11">Layer 2</tspan>
        </text>
      </g>
      <g id="Graphic_29">
        <rect x="-174.74188" y="270.0463" width="79.87062" height="13.851852" fill="#716ee0"/>
        <text transform="translate(-169.74188 269.80422)" fill="white">
          <tspan font-family="Helvetica Neue" font-size="12" fill="white" x="12.48931" y="11">Layer …</tspan>
        </text>
      </g>
      <g id="Graphic_30">
        <rect x="-174.74188" y="290.19444" width="79.87062" height="13.851852" fill="#716ee0"/>
        <text transform="translate(-169.74188 289.95237)" fill="white">
          <tspan font-family="Helvetica Neue" font-size="12" fill="white" x="11.81731" y="11">Layer 11</tspan>
        </text>
      </g>
      <g id="Graphic_34">
        <text transform="translate(-88.316 35)" fill="#11b5c4">
          <tspan font-family="Helvetica Neue" font-style="italic" font-weight="bold" font-size="16" fill="#11b5c4" x="7105427e-19" y="16">Sealing tasks</tspan>
        </text>
      </g>
      <g id="Graphic_35">
        <path d="M 240.974 151.75 L 308.614 151.75 C 319.6597 151.75 328.614 160.7043 328.614 171.75 L 328.614 203.75 C 328.614 214.7957 319.6597 223.75 308.614 223.75 L 240.974 223.75 C 229.9283 223.75 220.974 214.7957 220.974 203.75 L 220.974 171.75 C 220.974 160.7043 229.9283 151.75 240.974 151.75 Z" fill="#716ee0"/>
        <text transform="translate(225.974 178.526)" fill="white">
          <tspan font-family="Helvetica Neue" font-size="16" fill="white" x="13.836" y="15">Commit 2</tspan>
        </text>
      </g>
      <g id="Graphic_36">
        <path d="M -336 151.75 L -268.36 151.75 C -257.3143 151.75 -248.36 160.7043 -248.36 171.75 L -248.36 203.75 C -248.36 214.7957 -257.3143 223.75 -268.36 223.75 L -336 223.75 C -347.0457 223.75 -356 214.7957 -356 203.75 L -356 171.75 C -356 160.7043 -347.0457 151.75 -336 151.75 Z" fill="#726ee8"/>
        <text transform="translate(-351 178.526)" fill="white">
          <tspan font-family="Helvetica Neue" font-size="16" fill="white" x="12.516" y="15">Add piece</tspan>
        </text>
      </g>
      <g id="Line_37">
        <line x1="-458.1025" y1="187.75" x2="-365.9" y2="187.75" marker-end="url(#FilledArrow_Marker)" stroke="#807cff" stroke-linecap="round" stroke-linejoin="round" stroke-width="1"/>
      </g>
      <g id="Graphic_38">
        <text transform="translate(-348.331 130)" fill="#11b5c4">
          <tspan font-family="Helvetica Neue" font-weight="bold" font-size="14" fill="#11b5c4" x="0" y="14">32GiB / 64GiB</tspan>
        </text>
      </g>
      <g id="Line_40">
        <line x1="-248.36" y1="187.75" x2="-198.52657" y2="187.75" marker-end="url(#FilledArrow_Marker)" stroke="#807cff" stroke-linecap="round" stroke-linejoin="round" stroke-width="1"/>
      </g>
      <g id="Graphic_46">
        <rect x="146.12028" y="129.05457" width="15.120285" height="118" fill="#807cff"/>
      </g>
      <g id="Graphic_50">
        <text transform="translate(122.18743 85.70305)" fill="#11b5c4">
          <tspan font-family="Helvetica Neue" font-weight="bold" font-size="14" fill="#11b5c4" x="39790393e-20" y="14">WaitSeed</tspan>
        </text>
      </g>
      <g id="Graphic_53">
        <text transform="translate(115.55843 262.8)" fill="#11b5c4">
          <tspan font-family="Helvetica Neue" font-weight="bold" font-size="14" fill="#11b5c4" x="0" y="14">150 epochs</tspan>
        </text>
      </g>
      <g id="Line_55">
        <line x1="161.24057" y1="188.03556" x2="211.07403" y2="187.91024" marker-end="url(#FilledArrow_Marker)" stroke="#807cff" stroke-linecap="round" stroke-linejoin="round" stroke-width="1"/>
      </g>
      <g id="Graphic_26">
        <path d="M -1.2531435 151.75 L 66.38686 151.75 C 77.43255 151.75 86.38686 160.7043 86.38686 171.75 L 86.38686 203.75 C 86.38686 214.7957 77.43255 223.75 66.38686 223.75 L -1.2531435 223.75 C -12.298839 223.75 -21.253144 214.7957 -21.253144 203.75 L -21.253144 171.75 C -21.253144 160.7043 -12.298839 151.75 -1.2531435 151.75 Z" fill="#716ee0"/>
        <text transform="translate(-16.253144 178.526)" fill="white">
          <tspan font-family="Helvetica Neue" font-size="16" fill="white" x="1.8359997" y="15">PreCommit 2</tspan>
        </text>
      </g>
      <g id="Graphic_62">
        <rect x="-758" y="-282" width="335.748" height="251.4375" stroke="#00b6c6" stroke-linecap="round" stroke-linejoin="round" stroke-width="2"/>
      </g>
      <g id="Graphic_63">
        <text transform="translate(-645.9288 -317)" fill="#11b5c4">
          <tspan font-family="Helvetica Neue" font-style="italic" font-weight="bold" font-size="16" fill="#11b5c4" x="0" y="16">Proving tasks</tspan>
        </text>
      </g>
      <g id="Graphic_64">
        <path d="M -701 -228.78125 L -633.36 -228.78125 C -622.3143 -228.78125 -613.36 -219.82694 -613.36 -208.78125 L -613.36 -103.78125 C -613.36 -92.73556 -622.3143 -83.78125 -633.36 -83.78125 L -701 -83.78125 C -712.0457 -83.78125 -721 -92.73556 -721 -103.78125 L -721 -208.78125 C -721 -219.82694 -712.0457 -228.78125 -701 -228.78125 Z" fill="#00b6c6"/>
        <text transform="translate(-716 -165.50525)" fill="white">
          <tspan font-family="Helvetica Neue" font-size="16" fill="white" x="2.4439997" y="15">WinningPoSt</tspan>
        </text>
      </g>
      <g id="Graphic_67">
        <text transform="translate(-108.836 -50)" fill="#11b5c4">
          <tspan font-family="Helvetica Neue" font-style="italic" font-weight="bold" font-size="16" fill="#11b5c4" x="0" y="16">Scheduling tasks</tspan>
        </text>
      </g>
      <g id="Graphic_70">
        <rect x="-713" y="319" width="254.8975" height="26.21875" fill="#616785"/>
        <text transform="translate(-708 321.35738)" fill="white">
          <tspan font-family="Helvetica Neue" font-size="18" fill="white" x="90.78675" y="17">Storage</tspan>
        </text>
      </g>
      <g id="Line_71">
        <line x1="-585.55125" y1="225.625" x2="-585.55125" y2="319" stroke="#7f8080" stroke-linecap="round" stroke-linejoin="round" stroke-width="1"/>
      </g>
      <g id="Line_72">
        <line x1="-585.55125" y1="225.625" x2="-585.55125" y2="319" stroke="#7f8080" stroke-linecap="round" stroke-linejoin="round" stroke-width="1"/>
      </g>
      <g id="Line_73">
        <line x1="-585.55125" y1="319" x2="-585.55125" y2="225.625" stroke="#807cff" stroke-linecap="round" stroke-linejoin="round" stroke-width="1"/>
      </g>
      <g id="Graphic_76">
        <rect x="-713" y="353.10938" width="254.8975" height="26.21875" fill="#616785"/>
        <text transform="translate(-708 355.46675)" fill="white">
          <tspan font-family="Helvetica Neue" font-size="18" fill="white" x="90.78675" y="17">Storage</tspan>
        </text>
      </g>
      <g id="Line_77">
        <line x1="-585.55125" y1="345.21875" x2="-585.55125" y2="353.10938" stroke="#807cff" stroke-linecap="round" stroke-linejoin="round" stroke-width="1"/>
      </g>
      <g id="Line_138">
        <path d="M 328.614 187.78693 L 369.7585 187.81516 L 369.03584 10.451091 L 122.0941 9.695246 L -585.1535 11.642078 L -585.4366 136.97503" marker-end="url(#FilledArrow_Marker_2)" stroke="#726ee8" stroke-linecap="round" stroke-linejoin="round" stroke-dasharray="16.0,10.0" stroke-width="2"/>
      </g>
      <g id="Line_140">
        <line x1="-511.5025" y1="-155.86125" x2="-509.854" y2="189.4611" stroke="#807cff" stroke-linecap="round" stroke-linejoin="round" stroke-width="1"/>
      </g>
      <g id="Graphic_65">
        <path d="M -545.7425 -228.78125 L -478.1025 -228.78125 C -467.0568 -228.78125 -458.1025 -219.82694 -458.1025 -208.78125 L -458.1025 -103.78125 C -458.1025 -92.73556 -467.0568 -83.78125 -478.1025 -83.78125 L -545.7425 -83.78125 C -556.7882 -83.78125 -565.7425 -92.73556 -565.7425 -103.78125 L -565.7425 -208.78125 C -565.7425 -219.82694 -556.7882 -228.78125 -545.7425 -228.78125 Z" fill="#00b6c6"/>
        <text transform="translate(-560.7425 -165.50525)" fill="white">
          <tspan font-family="Helvetica Neue" font-size="16" fill="white" x="2.3079997" y="15">WindowPoSt</tspan>
        </text>
      </g>
      <g id="Line_143">
        <line x1="-667.18" y1="-83.78125" x2="-667.18" y2="157.77778" stroke="#807cff" stroke-linecap="round" stroke-linejoin="round" stroke-width="1"/>
      </g>
      <g id="Graphic_18">
        <path d="M -693 149.875 L -478.1025 149.875 C -467.0568 149.875 -458.1025 158.8293 -458.1025 169.875 L -458.1025 205.625 C -458.1025 216.6707 -467.0568 225.625 -478.1025 225.625 L -693 225.625 C -704.0457 225.625 -713 216.6707 -713 205.625 L -713 169.875 C -713 158.8293 -704.0457 149.875 -693 149.875 Z" fill="#5c57bc"/>
        <text transform="translate(-708 176.48894)" fill="white">
          <tspan font-family="Helvetica Neue" font-weight="bold" font-size="18" fill="white" x="70.13175" y="18">Lotus-miner</tspan>
        </text>
      </g>
      <g id="Graphic_145">
        <rect x="-577.6" y="387.21875" width="79.87062" height="72" fill="#616785"/>
        <text transform="translate(-572.6 406.84166)" fill="white">
          <tspan font-family="Helvetica Neue" font-weight="bold" font-size="13" fill="white" x="5.9323104" y="13">Unsealed</tspan>
          <tspan font-family="Helvetica Neue" font-weight="bold" font-size="13" fill="white" x="15.19481" y="29.37709">sector</tspan>
        </text>
      </g>
      <g id="Graphic_146">
        <rect x="-674.2" y="387.21875" width="79.87062" height="72" fill="#616785"/>
        <text transform="translate(-669.2 406.84166)" fill="white">
          <tspan font-family="Helvetica Neue" font-weight="bold" font-size="13" fill="white" x="13.87531" y="13">Sealed</tspan>
          <tspan font-family="Helvetica Neue" font-weight="bold" font-size="13" fill="white" x="15.19481" y="29.37709">sector</tspan>
        </text>
      </g>
      <g id="Line_148">
        <line x1="-567.90884" y1="387.21875" x2="-574.5379" y2="379.32812" stroke="#807cff" stroke-linecap="round" stroke-linejoin="round" stroke-width="1"/>
      </g>
      <g id="Line_149">
        <line x1="-603.4983" y1="387.21875" x2="-596.7548" y2="379.32812" stroke="#7e7cff" stroke-linecap="round" stroke-linejoin="round" stroke-width="1"/>
      </g>
      <g id="Graphic_151">
        <text transform="translate(-747.2674 405.81265)" fill="#11b5c4">
          <tspan font-family="Helvetica Neue" font-weight="bold" font-size="14" fill="#11b5c4" x="0" y="14">32GiB /</tspan>
          <tspan font-family="Helvetica Neue" font-weight="bold" font-size="14" fill="#11b5c4" x="0" y="31.406097">64GiB   </tspan>
        </text>
      </g>
      <g id="Graphic_152">
        <text transform="translate(-476 405.81265)" fill="#11b5c4">
          <tspan font-family="Helvetica Neue" font-weight="bold" font-size="14" fill="#11b5c4" x="0" y="14">32GiB /</tspan>
          <tspan font-family="Helvetica Neue" font-weight="bold" font-size="14" fill="#11b5c4" x="0" y="31.406097">64GiB</tspan>
        </text>
      </g>
      <g id="Graphic_153">
        <text transform="translate(384 77)" fill="#11b5c4">
          <tspan font-family="Helvetica Neue" font-weight="bold" font-size="14" fill="#11b5c4" x="0" y="14">32GiB / </tspan>
          <tspan font-family="Helvetica Neue" font-weight="bold" font-size="14" fill="#11b5c4" x="0" y="31.406097">64GiB</tspan>
        </text>
      </g>
      <g id="Graphic_156">
        <text transform="translate(-78.28093 122.15495)" fill="#11b5c4">
          <tspan font-family="Helvetica Neue" font-weight="bold" font-size="11" fill="#11b5c4" x="7425172e-19" y="11">384GiB /</tspan>
          <tspan font-family="Helvetica Neue" font-weight="bold" font-size="11" fill="#11b5c4" x="3.5695" y="24.319077">768GiB</tspan>
        </text>
      </g>
      <g id="Graphic_159">
        <path d="M -693 234.11743 L -478.1025 234.11743 C -467.0568 234.11743 -458.1025 243.07174 -458.1025 254.11743 L -458.1025 289.86743 C -458.1025 300.91313 -467.0568 309.86743 -478.1025 309.86743 L -693 309.86743 C -704.0457 309.86743 -713 300.91313 -713 289.86743 L -713 254.11743 C -713 243.07174 -704.0457 234.11743 -693 234.11743 Z" fill="#5c57bc"/>
        <text transform="translate(-708 249.4703)" fill="white">
          <tspan font-family="Helvetica Neue" font-weight="bold" font-size="18" fill="white" x="26.634753" y="18">Lotus-miner markets /</tspan>
          <tspan font-family="Helvetica Neue" font-weight="bold" font-size="18" fill="white" x="90.76875" y="40.522125">BOOST</tspan>
        </text>
      </g>
      <g id="Line_175">
        <path d="M -458.1025 271.61 L -420.8 271.49805 L -420.8 188.1323 L -420.7779 187.75" stroke="#807cff" stroke-linecap="round" stroke-linejoin="miter" stroke-width="1"/>
      </g>
      <g id="Graphic_186">
        <text transform="translate(90.10229 122.15495)" fill="#11b5c4">
          <tspan font-family="Helvetica Neue" font-weight="bold" font-size="11" fill="#11b5c4" x="14210855e-21" y="11">~500GiB /</tspan>
          <tspan font-family="Helvetica Neue" font-weight="bold" font-size="11" fill="#11b5c4" x="10.4995" y="24.319077">~1TiB</tspan>
        </text>
      </g>
      <g id="Line_188">
        <line x1="115.11128" y1="153.7931" x2="115.11128" y2="187.6127" stroke="#807cff" stroke-linecap="round" stroke-linejoin="round" stroke-width="1"/>
      </g>
    </g>
  </g>
</svg>
